<svg xmlns="http://www.w3.org/2000/svg" viewBox="0 0 1200 280" font-family="'Segoe UI','PingFang SC','Microsoft YaHei',sans-serif">
  <defs>
    <linearGradient id="bg" x1="0" y1="0" x2="1" y2="1">
      <stop offset="0" stop-color="#0b1020"/>
      <stop offset="1" stop-color="#141b33"/>
    </linearGradient>
    <linearGradient id="accent" x1="0" y1="0" x2="1" y2="0">
      <stop offset="0" stop-color="#5b9dff"/>
      <stop offset="1" stop-color="#9d6bff"/>
    </linearGradient>
  </defs>

  <rect width="1200" height="280" fill="url(#bg)"/>

  <!-- decorative book/search glyph -->
  <g transform="translate(96,88)" opacity="0.9">
    <circle cx="0" cy="0" r="34" fill="none" stroke="#5b9dff" stroke-width="4"/>
    <line x1="24" y1="24" x2="46" y2="46" stroke="#9d6bff" stroke-width="6" stroke-linecap="round"/>
    <path d="M -14 -8 L 14 -8 M -14 0 L 14 0 M -14 8 L 6 8" stroke="#5b9dff"
          stroke-width="3" stroke-linecap="round"/>
  </g>

  <text x="170" y="112" font-size="54" font-weight="800" fill="#f0f4ff">LitScan</text>
  <rect x="172" y="128" width="220" height="5" rx="2.5" fill="url(#accent)"/>
  <text x="170" y="162" font-size="17" fill="#aab8d8">学术文献多库检索工具 · Multi-Database Academic Literature Scanner</text>


  <g transform="translate(220,186)">
    <rect x="0" y="0" width="170" height="64" rx="12" fill="#161e33"
          stroke="#2a3a5f" stroke-width="1"/>
    <text x="85" y="28" text-anchor="middle" font-size="22" font-weight="700"
          fill="#5b9dff">7</text>
    <text x="85" y="50" text-anchor="middle" font-size="11"
          fill="#8b9cc0">Data Sources</text>
  </g>

  <g transform="translate(410,186)">
    <rect x="0" y="0" width="170" height="64" rx="12" fill="#161e33"
          stroke="#2a3a5f" stroke-width="1"/>
    <text x="85" y="28" text-anchor="middle" font-size="22" font-weight="700"
          fill="#5b9dff">16</text>
    <text x="85" y="50" text-anchor="middle" font-size="11"
          fill="#8b9cc0">API Endpoints</text>
  </g>

  <g transform="translate(600,186)">
    <rect x="0" y="0" width="170" height="64" rx="12" fill="#161e33"
          stroke="#2a3a5f" stroke-width="1"/>
    <text x="85" y="28" text-anchor="middle" font-size="22" font-weight="700"
          fill="#5b9dff">53</text>
    <text x="85" y="50" text-anchor="middle" font-size="11"
          fill="#8b9cc0">Edge Tests</text>
  </g>

  <g transform="translate(790,186)">
    <rect x="0" y="0" width="170" height="64" rx="12" fill="#161e33"
          stroke="#2a3a5f" stroke-width="1"/>
    <text x="85" y="28" text-anchor="middle" font-size="22" font-weight="700"
          fill="#5b9dff">1.9k+</text>
    <text x="85" y="50" text-anchor="middle" font-size="11"
          fill="#8b9cc0">Lines of Python</text>
  </g>
</svg>
